<?xml version="1.0" standalone="no"?>
<!DOCTYPE svg PUBLIC "-//W3C//DTD SVG 20010904//EN"
 "http://www.w3.org/TR/2001/REC-SVG-20010904/DTD/svg10.dtd">
<svg version="1.0" xmlns="http://www.w3.org/2000/svg"
 width="612.000000pt" height="612.000000pt" viewBox="0 0 612.000000 612.000000"
 preserveAspectRatio="xMidYMid meet">

<g transform="translate(0.000000,612.000000) scale(0.100000,-0.100000)"
fill="#000000" stroke="none">
<path d="M0 3060 l0 -3060 3060 0 3060 0 0 3060 0 3060 -3060 0 -3060 0 0
-3060z m1690 1605 l0 -235 -57 -1 c-32 -1 -138 -3 -235 -4 l-178 -1 0 238 0
238 235 0 235 0 0 -235z m940 0 l0 -235 235 0 235 0 2 233 3 232 238 3 237 2
0 -235 0 -235 233 -2 232 -3 3 -237 2 -238 235 0 235 0 0 239 0 238 -137 1
c-76 0 -182 1 -235 1 l-98 1 0 235 0 235 235 0 235 0 0 -235 0 -235 235 0 235
0 0 -240 0 -240 -235 0 -235 0 0 -235 0 -235 235 0 235 0 0 -235 0 -235 -235
0 -235 0 0 -235 0 -235 235 0 235 0 0 -235 0 -235 -235 0 -235 0 0 -235 0
-235 235 0 235 0 0 -240 0 -240 -235 0 -235 0 0 240 0 240 -235 0 -235 0 0
-240 0 -240 -235 0 -235 0 -2 238 -3 237 -238 3 -238 2 1 -237 1 -238 -233 0
-233 0 -3 238 -2 237 -235 0 -235 0 0 -240 0 -240 -235 0 -235 0 0 240 0 240
-235 0 -235 0 0 235 0 235 235 0 235 0 0 235 0 235 -235 0 -235 0 0 235 0 235
235 0 235 0 0 235 0 235 -235 0 -235 0 0 238 0 237 235 -3 235 -3 2 238 3 238
233 3 232 2 0 -240 0 -240 235 0 235 0 -2 237 -3 237 -225 2 c-124 0 -228 2
-232 3 -5 0 -8 107 -8 236 l0 235 235 0 235 0 0 -235z m-663 199 c-3 -3 -12
-4 -19 -1 -8 3 -5 6 6 6 11 1 17 -2 13 -5z m1871 -1 c-10 -2 -26 -2 -35 0 -10
3 -2 5 17 5 19 0 27 -2 18 -5z m925 0 c-7 -2 -19 -2 -25 0 -7 3 -2 5 12 5 14
0 19 -2 13 -5z m-873 -13 c8 -5 11 -10 5 -10 -5 0 -17 5 -25 10 -8 5 -10 10
-5 10 6 0 17 -5 25 -10z m71 -47 c13 -16 12 -17 -3 -4 -17 13 -22 21 -14 21 2
0 10 -8 17 -17z m673 -4 c-3 -5 -9 -7 -14 -4 -11 7 -32 -20 -22 -30 4 -5 1 -5
-6 -1 -11 6 -9 13 9 32 20 22 47 24 33 3z m-972 -19 c-9 -16 -19 -25 -21 -19
-3 9 26 49 35 49 2 0 -5 -13 -14 -30z m-1895 -5 c0 -8 -4 -12 -9 -9 -5 3 -6
10 -3 15 9 13 12 11 12 -6z m1268 5 c-3 -5 -1 -10 6 -10 7 0 10 -3 6 -6 -9 -9
-28 6 -22 17 4 5 8 9 11 9 3 0 2 -4 -1 -10z m22 -122 c-3 -8 -6 -5 -6 6 -1 11
2 17 5 13 3 -3 4 -12 1 -19z m20 -10 c-3 -7 -5 -2 -5 12 0 14 2 19 5 13 2 -7
2 -19 0 -25z m940 -5 c-3 -10 -5 -4 -5 12 0 17 2 24 5 18 2 -7 2 -21 0 -30z
m-398 -18 c0 -5 -4 -3 -9 5 -5 8 -9 22 -9 30 0 16 17 -16 18 -35z m-1892 -17
c-3 -8 -6 -5 -6 6 -1 11 2 17 5 13 3 -3 4 -12 1 -19z m2841 -23 c-3 -3 -9 2
-12 12 -6 14 -5 15 5 6 7 -7 10 -15 7 -18z m-934 -11 c3 -8 2 -12 -4 -9 -6 3
-10 10 -10 16 0 14 7 11 14 -7z m-628 -62 c-17 -16 -18 -16 -5 5 7 12 15 20
18 17 3 -2 -3 -12 -13 -22z m-951 -1 c3 -5 2 -12 -3 -15 -5 -3 -9 1 -9 9 0 17
3 19 12 6z m2580 -9 c-3 -3 -11 0 -18 7 -9 10 -8 11 6 5 10 -3 15 -9 12 -12z
m265 14 c0 -2 -8 -10 -17 -17 -16 -13 -17 -12 -4 4 13 16 21 21 21 13z m-1015
-46 c-3 -5 -12 -10 -18 -10 -7 0 -6 4 3 10 19 12 23 12 15 0z m922 4 c-3 -3
-12 -4 -19 -1 -8 3 -5 6 6 6 11 1 17 -2 13 -5z m-2920 -10 c-3 -3 -12 -4 -19
-1 -8 3 -5 6 6 6 11 1 17 -2 13 -5z m1928 -4 c3 -5 1 -10 -4 -10 -6 0 -11 5
-11 10 0 6 2 10 4 10 3 0 8 -4 11 -10z m-932 -7 c-7 -2 -21 -2 -30 0 -10 3 -4
5 12 5 17 0 24 -2 18 -5z m1885 0 c-10 -2 -26 -2 -35 0 -10 3 -2 5 17 5 19 0
27 -2 18 -5z m-3295 -60 c-7 -2 -21 -2 -30 0 -10 3 -4 5 12 5 17 0 24 -2 18
-5z m2850 0 c-7 -2 -21 -2 -30 0 -10 3 -4 5 12 5 17 0 24 -2 18 -5z m-2906 -9
c-3 -3 -12 -4 -19 -1 -8 3 -5 6 6 6 11 1 17 -2 13 -5z m898 -14 c-3 -5 -12
-10 -18 -10 -7 0 -6 4 3 10 19 12 23 12 15 0z m2107 -14 c7 4 8 2 4 -5 -9 -13
-26 -5 -25 12 0 9 2 8 6 -1 2 -6 10 -9 15 -6z m-2154 -25 c-7 -11 -16 -17 -21
-14 -4 3 0 11 10 19 24 18 25 17 11 -5z m-948 5 c0 -2 -8 -10 -17 -17 -16 -13
-17 -12 -4 4 13 16 21 21 21 13z m3138 -21 c-3 -3 -9 2 -12 12 -6 14 -5 15 5
6 7 -7 10 -15 7 -18z m-317 -26 c-5 -13 -10 -19 -10 -12 -1 15 10 45 15 40 3
-2 0 -15 -5 -28z m-1557 -7 c3 -5 -1 -9 -9 -9 -8 0 -12 4 -9 9 3 4 7 8 9 8 2
0 6 -4 9 -8z m-387 -64 c-3 -8 -6 -5 -6 6 -1 11 2 17 5 13 3 -3 4 -12 1 -19z
m400 -90 c-3 -8 -6 -5 -6 6 -1 11 2 17 5 13 3 -3 4 -12 1 -19z m-1262 -88 c-3
-5 -1 -10 6 -10 7 0 10 -3 6 -6 -9 -9 -28 6 -22 17 4 5 8 9 11 9 3 0 2 -4 -1
-10z m965 -26 c0 -2 -9 0 -20 6 -11 6 -20 13 -20 16 0 2 9 0 20 -6 11 -6 20
-13 20 -16z m2135 16 c-3 -5 -12 -10 -18 -10 -7 0 -6 4 3 10 19 12 23 12 15 0z
m-2882 -20 c-4 -4 -19 -10 -33 -14 -14 -3 -19 -3 -12 0 6 3 10 9 7 14 -3 4 5
6 17 2 16 -4 19 -2 13 8 -6 9 -4 11 4 5 7 -4 9 -11 4 -15z m937 0 c-8 -5 -19
-10 -25 -10 -5 0 -3 5 5 10 8 5 20 10 25 10 6 0 3 -5 -5 -10z m-63 -26 c-3 -3
-12 -4 -19 -1 -8 3 -5 6 6 6 11 1 17 -2 13 -5z m1880 0 c-3 -3 -12 -4 -19 -1
-8 3 -5 6 6 6 11 1 17 -2 13 -5z"/>
<path d="M3104 4416 c-2 -6 -3 -113 -2 -236 l3 -225 238 -3 237 -2 0 -235 0
-235 -240 0 -240 0 0 235 0 235 -235 0 -235 0 0 -235 0 -235 -235 0 -235 0 0
235 0 235 -235 0 -235 0 0 -235 0 -235 235 0 235 0 0 -235 0 -235 -235 0 -235
0 0 -235 0 -235 235 0 235 0 0 -235 0 -235 -235 0 -235 0 0 -235 0 -235 235 0
235 0 0 235 0 235 235 0 235 0 0 -235 0 -235 235 0 235 0 0 235 0 235 240 0
240 0 0 -235 0 -235 235 0 235 0 0 235 0 235 235 0 235 0 0 235 0 235 -235 0
-235 0 0 235 0 235 235 0 235 0 0 235 0 235 -235 0 -235 0 0 235 0 235 -235 0
-235 0 0 235 c0 129 -3 235 -7 236 -5 0 -111 2 -236 4 -168 2 -230 0 -233 -9z
m259 -23 c-7 -2 -19 -2 -25 0 -7 3 -2 5 12 5 14 0 19 -2 13 -5z m-88 -13 c-3
-5 -12 -10 -18 -10 -7 0 -6 4 3 10 19 12 23 12 15 0z m140 0 c3 -6 -1 -7 -9
-4 -18 7 -21 14 -7 14 6 0 13 -4 16 -10z m47 -24 c7 4 8 2 4 -5 -9 -13 -26 -5
-25 12 0 9 2 8 6 -1 2 -6 10 -9 15 -6z m58 -62 c0 -8 -19 -13 -24 -6 -3 5 1 9
9 9 8 0 15 -2 15 -3z m-383 -121 c-3 -10 -5 -2 -5 17 0 19 2 27 5 18 2 -10 2
-26 0 -35z m410 -15 c-3 -7 -5 -2 -5 12 0 14 2 19 5 13 2 -7 2 -19 0 -25z
m-247 -153 c0 -1 -12 -2 -26 -2 -17 0 -22 2 -13 7 10 7 39 3 39 -5z m135 5 c3
-6 -1 -7 -9 -4 -18 7 -21 14 -7 14 6 0 13 -4 16 -10z m-333 -761 c2 -127 1
-233 -1 -235 -2 -2 -109 -4 -238 -4 l-233 0 0 -235 0 -235 235 0 235 0 2 233
3 232 238 3 237 2 0 235 0 235 235 0 235 0 0 -235 0 -235 -235 0 -235 0 0
-235 0 -235 235 0 235 0 0 -235 0 -235 -235 0 -235 0 0 235 0 235 -240 0 -241
0 1 -212 c0 -117 1 -223 0 -235 l0 -23 -235 0 -235 0 0 235 0 235 -235 0 -235
0 0 235 0 235 235 0 235 0 0 235 0 235 235 0 234 0 3 -231z"/>
</g>
</svg>
