<?xml version="1.0" standalone="no"?>
<!DOCTYPE svg PUBLIC "-//W3C//DTD SVG 20010904//EN"
 "http://www.w3.org/TR/2001/REC-SVG-20010904/DTD/svg10.dtd">
<svg version="1.0" xmlns="http://www.w3.org/2000/svg"
 width="640.000000pt" height="640.000000pt" viewBox="0 0 640.000000 640.000000"
 preserveAspectRatio="xMidYMid meet">

<g transform="translate(0.000000,640.000000) scale(0.100000,-0.100000)"
fill="#000000" stroke="none">
<path d="M800 6000 l0 -400 -400 0 -400 0 0 -400 0 -400 400 0 400 0 0 -400 0
-400 -400 0 -400 0 0 -400 0 -400 400 0 400 0 0 -400 0 -400 -400 0 -400 0 0
-400 0 -400 400 0 400 0 0 -400 0 -400 -400 0 -400 0 0 -400 0 -400 400 0 400
0 0 400 0 400 175 0 175 0 0 -25 c0 -23 -3 -25 -50 -25 -47 0 -50 -2 -50 -25
0 -20 -5 -25 -25 -25 -20 0 -25 -5 -25 -25 0 -20 -5 -25 -25 -25 -23 0 -25 -3
-25 -50 0 -47 2 -50 25 -50 20 0 25 -5 25 -25 0 -20 -5 -25 -25 -25 -20 0 -25
-5 -25 -25 0 -20 5 -25 25 -25 23 0 25 -3 25 -50 0 -47 2 -50 25 -50 20 0 25
-5 25 -25 0 -20 5 -25 25 -25 23 0 25 -3 25 -50 l0 -50 -50 0 -50 0 0 -50 0
-50 -50 0 -50 0 0 -50 0 -50 300 0 300 0 0 50 0 50 -50 0 -50 0 0 50 c0 47 -2
50 -25 50 -23 0 -25 3 -25 50 0 47 -2 50 -25 50 -20 0 -25 5 -25 25 0 20 5 25
25 25 20 0 25 5 25 25 0 20 5 25 25 25 20 0 25 -5 25 -25 0 -23 3 -25 50 -25
47 0 50 2 50 25 0 20 5 25 25 25 23 0 25 3 25 50 0 47 -2 50 -25 50 -20 0 -25
5 -25 25 0 20 -5 25 -25 25 -20 0 -25 5 -25 25 0 20 -5 25 -25 25 -20 0 -25 5
-25 25 0 20 -5 25 -25 25 -23 0 -25 3 -25 50 0 47 -2 50 -25 50 -20 0 -25 5
-25 25 l0 25 150 0 150 0 0 -400 0 -400 400 0 400 0 0 400 0 400 175 0 175 0
0 -25 c0 -23 -3 -25 -50 -25 l-50 0 0 -50 0 -50 50 0 c47 0 50 -2 50 -25 0
-24 -2 -25 -75 -25 l-75 0 0 50 0 50 -50 0 -50 0 0 -75 c0 -73 1 -75 25 -75
20 0 25 -5 25 -25 0 -20 5 -25 25 -25 24 0 25 -2 25 -75 0 -73 1 -75 25 -75
23 0 25 -3 25 -50 l0 -50 -50 0 -50 0 0 -75 c0 -73 -1 -75 -25 -75 -23 0 -25
-3 -25 -50 l0 -50 300 0 300 0 0 50 c0 47 -2 50 -25 50 -24 0 -25 2 -25 75 l0
75 -50 0 -50 0 0 50 c0 47 2 50 25 50 24 0 25 2 25 75 0 73 1 75 25 75 20 0
25 5 25 25 0 20 5 25 25 25 24 0 25 2 25 75 l0 75 -50 0 -50 0 0 -50 0 -50
-75 0 c-73 0 -75 1 -75 25 0 23 3 25 50 25 l50 0 0 50 0 50 -50 0 c-47 0 -50
2 -50 25 l0 25 175 0 175 0 0 -400 0 -400 400 0 400 0 0 400 0 400 150 0 150
0 0 -25 c0 -20 -5 -25 -25 -25 -23 0 -25 -3 -25 -50 0 -47 -2 -50 -25 -50
l-25 0 0 -225 0 -225 50 0 c47 0 50 -2 50 -25 0 -23 -3 -25 -50 -25 -47 0 -50
-2 -50 -25 0 -23 -3 -25 -50 -25 l-50 0 0 -50 0 -50 300 0 300 0 0 50 0 50
-50 0 c-47 0 -50 2 -50 25 0 23 -3 25 -50 25 -47 0 -50 2 -50 25 0 23 3 25 50
25 l50 0 0 225 0 225 -25 0 c-23 0 -25 3 -25 50 0 47 -2 50 -25 50 -20 0 -25
5 -25 25 l0 25 150 0 150 0 0 -400 0 -400 400 0 400 0 0 400 0 400 50 0 50 0
0 -175 0 -175 50 0 50 0 0 -175 0 -175 -50 0 -50 0 0 -50 0 -50 300 0 300 0 0
50 0 50 -50 0 -50 0 0 175 0 175 50 0 50 0 0 175 0 175 50 0 50 0 0 400 0 400
-400 0 -400 0 0 400 0 400 400 0 400 0 0 400 0 400 -400 0 -400 0 0 400 0 400
400 0 400 0 0 400 0 400 -400 0 -400 0 0 400 0 400 50 0 50 0 0 50 0 50 50 0
50 0 0 175 0 175 -50 0 -50 0 0 175 0 175 -50 0 -50 0 0 -400 0 -400 -400 0
-400 0 0 400 0 400 -150 0 -150 0 0 -25 c0 -20 5 -25 25 -25 23 0 25 -3 25
-50 0 -47 2 -50 25 -50 l25 0 0 -225 0 -225 -50 0 c-47 0 -50 -2 -50 -25 0
-23 3 -25 50 -25 47 0 50 -2 50 -25 0 -23 3 -25 50 -25 l50 0 0 -50 0 -50 50
0 50 0 0 -400 0 -400 -400 0 -400 0 0 400 0 400 50 0 50 0 0 50 0 50 50 0 c47
0 50 2 50 25 0 23 3 25 50 25 47 0 50 2 50 25 0 23 -3 25 -50 25 l-50 0 0 225
0 225 25 0 c23 0 25 3 25 50 0 47 2 50 25 50 20 0 25 5 25 25 l0 25 -150 0
-150 0 0 -400 0 -400 -400 0 -400 0 0 400 0 400 -175 0 -175 0 0 -25 c0 -23 3
-25 50 -25 l50 0 0 -50 0 -50 -50 0 c-47 0 -50 -2 -50 -25 0 -24 2 -25 75 -25
l75 0 0 50 0 50 50 0 50 0 0 -75 c0 -73 -1 -75 -25 -75 -20 0 -25 -5 -25 -25
0 -20 -5 -25 -25 -25 -24 0 -25 -2 -25 -75 0 -73 -1 -75 -25 -75 -23 0 -25 -3
-25 -50 l0 -50 50 0 50 0 0 -75 c0 -73 1 -75 25 -75 23 0 25 -3 25 -50 l0 -50
50 0 50 0 0 -400 0 -400 -400 0 -400 0 0 400 0 400 50 0 50 0 0 50 c0 47 2 50
25 50 24 0 25 2 25 75 l0 75 50 0 50 0 0 50 c0 47 -2 50 -25 50 -24 0 -25 2
-25 75 0 73 -1 75 -25 75 -20 0 -25 5 -25 25 0 20 -5 25 -25 25 -24 0 -25 2
-25 75 l0 75 50 0 50 0 0 -50 0 -50 75 0 c73 0 75 1 75 25 0 23 -3 25 -50 25
l-50 0 0 50 0 50 50 0 c47 0 50 2 50 25 l0 25 -175 0 -175 0 0 -400 0 -400
-400 0 -400 0 0 400 0 400 -150 0 -150 0 0 -25 c0 -20 5 -25 25 -25 23 0 25
-3 25 -50 0 -47 2 -50 25 -50 20 0 25 -5 25 -25 0 -20 5 -25 25 -25 20 0 25
-5 25 -25 0 -20 5 -25 25 -25 20 0 25 -5 25 -25 0 -20 -5 -25 -25 -25 -20 0
-25 -5 -25 -25 0 -20 5 -25 25 -25 20 0 25 5 25 25 0 20 5 25 25 25 23 0 25
-3 25 -50 0 -47 -2 -50 -25 -50 -20 0 -25 -5 -25 -25 0 -23 -3 -25 -50 -25
-47 0 -50 2 -50 25 0 20 -5 25 -25 25 -20 0 -25 -5 -25 -25 0 -20 -5 -25 -25
-25 -20 0 -25 -5 -25 -25 0 -20 5 -25 25 -25 23 0 25 -3 25 -50 0 -47 2 -50
25 -50 23 0 25 -3 25 -50 l0 -50 50 0 50 0 0 -50 0 -50 50 0 50 0 0 -400 0
-400 -400 0 -400 0 0 400 0 400 50 0 50 0 0 50 0 50 50 0 50 0 0 50 0 50 50 0
50 0 0 50 c0 47 -2 50 -25 50 -20 0 -25 5 -25 25 0 20 -5 25 -25 25 -23 0 -25
3 -25 50 0 47 -2 50 -25 50 -20 0 -25 5 -25 25 0 20 5 25 25 25 20 0 25 5 25
25 0 20 -5 25 -25 25 -23 0 -25 3 -25 50 0 47 2 50 25 50 20 0 25 5 25 25 0
20 5 25 25 25 20 0 25 5 25 25 0 23 3 25 50 25 47 0 50 2 50 25 l0 25 -175 0
-175 0 0 -400z m-350 -725 c0 -20 5 -25 25 -25 23 0 25 -3 25 -50 0 -47 -2
-50 -25 -50 -23 0 -25 -3 -25 -50 0 -47 2 -50 25 -50 23 0 25 -3 25 -50 l0
-50 50 0 50 0 0 -50 0 -50 -200 0 -200 0 0 50 0 50 50 0 50 0 0 50 c0 47 2 50
25 50 23 0 25 3 25 50 0 47 -2 50 -25 50 -23 0 -25 3 -25 50 0 47 2 50 25 50
20 0 25 5 25 25 0 23 3 25 50 25 47 0 50 -2 50 -25z m1600 0 c0 -20 5 -25 25
-25 23 0 25 -3 25 -50 0 -47 -2 -50 -25 -50 -23 0 -25 -3 -25 -50 0 -47 2 -50
25 -50 23 0 25 -3 25 -50 l0 -50 50 0 50 0 0 -50 0 -50 -200 0 -200 0 0 50 0
50 50 0 50 0 0 50 c0 47 2 50 25 50 23 0 25 3 25 50 0 47 -2 50 -25 50 -23 0
-25 3 -25 50 0 47 2 50 25 50 20 0 25 5 25 25 0 23 3 25 50 25 47 0 50 -2 50
-25z m1600 0 c0 -20 5 -25 25 -25 23 0 25 -3 25 -50 0 -47 -2 -50 -25 -50 -23
0 -25 -3 -25 -50 0 -47 2 -50 25 -50 23 0 25 -3 25 -50 l0 -50 50 0 50 0 0
-50 0 -50 -200 0 -200 0 0 50 0 50 50 0 50 0 0 50 c0 47 2 50 25 50 23 0 25 3
25 50 0 47 -2 50 -25 50 -23 0 -25 3 -25 50 0 47 2 50 25 50 20 0 25 5 25 25
0 23 3 25 50 25 47 0 50 -2 50 -25z m1600 0 c0 -20 5 -25 25 -25 23 0 25 -3
25 -50 0 -47 -2 -50 -25 -50 -23 0 -25 -3 -25 -50 0 -47 2 -50 25 -50 23 0 25
-3 25 -50 l0 -50 50 0 50 0 0 -50 0 -50 -200 0 -200 0 0 50 0 50 50 0 50 0 0
50 c0 47 2 50 25 50 23 0 25 3 25 50 0 47 -2 50 -25 50 -23 0 -25 3 -25 50 0
47 2 50 25 50 20 0 25 5 25 25 0 23 3 25 50 25 47 0 50 -2 50 -25z m-2850
-875 l0 -400 400 0 400 0 0 400 0 400 400 0 400 0 0 -400 0 -400 400 0 400 0
0 400 0 400 400 0 400 0 0 -400 0 -400 -400 0 -400 0 0 -400 0 -400 400 0 400
0 0 -400 0 -400 -400 0 -400 0 0 -400 0 -400 400 0 400 0 0 -400 0 -400 -400
0 -400 0 0 400 0 400 -400 0 -400 0 0 -400 0 -400 -400 0 -400 0 0 400 0 400
-400 0 -400 0 0 -400 0 -400 -400 0 -400 0 0 400 0 400 -400 0 -400 0 0 400 0
400 400 0 400 0 0 400 0 400 -400 0 -400 0 0 400 0 400 400 0 400 0 0 400 0
400 400 0 400 0 0 -400z m-1150 -3625 c0 -20 -5 -25 -25 -25 -20 0 -25 5 -25
25 0 20 5 25 25 25 20 0 25 -5 25 -25z m3150 -25 c0 -47 2 -50 25 -50 20 0 25
-5 25 -25 0 -20 5 -25 25 -25 20 0 25 -5 25 -25 0 -20 -5 -25 -25 -25 -20 0
-25 5 -25 25 0 20 -5 25 -25 25 -20 0 -25 5 -25 25 0 20 -5 25 -25 25 -23 0
-25 3 -25 50 0 47 2 50 25 50 23 0 25 -3 25 -50z m1450 0 c0 -47 -2 -50 -25
-50 -23 0 -25 3 -25 50 0 47 2 50 25 50 23 0 25 -3 25 -50z m200 0 l0 -50 -50
0 -50 0 0 50 0 50 50 0 50 0 0 -50z m150 0 c0 -47 -2 -50 -25 -50 -23 0 -25 3
-25 50 0 47 2 50 25 50 23 0 25 -3 25 -50z m-4900 -125 c0 -20 -5 -25 -25 -25
-20 0 -25 5 -25 25 0 20 5 25 25 25 20 0 25 -5 25 -25z m200 -150 c0 -20 -5
-25 -25 -25 -20 0 -25 5 -25 25 0 20 5 25 25 25 20 0 25 -5 25 -25z m4550
-250 c0 -20 5 -25 25 -25 23 0 25 -3 25 -50 l0 -50 -100 0 -100 0 0 50 c0 47
2 50 25 50 20 0 25 5 25 25 0 23 3 25 50 25 47 0 50 -2 50 -25z"/>
<path d="M1600 3600 l0 -400 400 0 400 0 0 -400 0 -400 -400 0 -400 0 0 -400
0 -400 400 0 400 0 0 400 0 400 400 0 400 0 0 -400 0 -400 400 0 400 0 0 400
0 400 400 0 400 0 0 400 0 400 -400 0 -400 0 0 400 0 400 -400 0 -400 0 0
-400 0 -400 -400 0 -400 0 0 400 0 400 -400 0 -400 0 0 -400z m2400 -800 l0
-400 -400 0 -400 0 0 400 0 400 400 0 400 0 0 -400z"/>
<path d="M1950 1275 c0 -20 -5 -25 -25 -25 -23 0 -25 -3 -25 -50 0 -47 2 -50
25 -50 23 0 25 -3 25 -50 0 -47 -2 -50 -25 -50 -23 0 -25 -3 -25 -50 l0 -50
-50 0 -50 0 0 -50 0 -50 200 0 200 0 0 50 0 50 -50 0 -50 0 0 50 c0 47 -2 50
-25 50 -23 0 -25 3 -25 50 0 47 2 50 25 50 23 0 25 3 25 50 0 47 -2 50 -25 50
-20 0 -25 5 -25 25 0 23 -3 25 -50 25 -47 0 -50 -2 -50 -25z"/>
<path d="M3550 1275 c0 -20 -5 -25 -25 -25 -23 0 -25 -3 -25 -50 0 -47 2 -50
25 -50 23 0 25 -3 25 -50 0 -47 -2 -50 -25 -50 -23 0 -25 -3 -25 -50 l0 -50
-50 0 -50 0 0 -50 0 -50 200 0 200 0 0 50 0 50 -50 0 -50 0 0 50 c0 47 -2 50
-25 50 -23 0 -25 3 -25 50 0 47 2 50 25 50 23 0 25 3 25 50 0 47 -2 50 -25 50
-20 0 -25 5 -25 25 0 23 -3 25 -50 25 -47 0 -50 -2 -50 -25z"/>
<path d="M5150 1275 c0 -20 -5 -25 -25 -25 -23 0 -25 -3 -25 -50 0 -47 2 -50
25 -50 23 0 25 -3 25 -50 0 -47 -2 -50 -25 -50 -23 0 -25 -3 -25 -50 l0 -50
-50 0 -50 0 0 -50 0 -50 200 0 200 0 0 50 0 50 -50 0 -50 0 0 50 c0 47 -2 50
-25 50 -23 0 -25 3 -25 50 0 47 2 50 25 50 23 0 25 3 25 50 0 47 -2 50 -25 50
-20 0 -25 5 -25 25 0 23 -3 25 -50 25 -47 0 -50 -2 -50 -25z"/>
<path d="M1200 6375 c0 -20 5 -25 25 -25 20 0 25 5 25 25 0 20 -5 25 -25 25
-20 0 -25 -5 -25 -25z"/>
<path d="M4350 6350 c0 -47 2 -50 25 -50 20 0 25 -5 25 -25 0 -20 5 -25 25
-25 20 0 25 -5 25 -25 0 -20 5 -25 25 -25 20 0 25 5 25 25 0 20 -5 25 -25 25
-20 0 -25 5 -25 25 0 20 -5 25 -25 25 -23 0 -25 3 -25 50 0 47 -2 50 -25 50
-23 0 -25 -3 -25 -50z"/>
<path d="M5800 6350 c0 -47 2 -50 25 -50 23 0 25 3 25 50 0 47 -2 50 -25 50
-23 0 -25 -3 -25 -50z"/>
<path d="M5950 6350 l0 -50 50 0 50 0 0 50 0 50 -50 0 -50 0 0 -50z"/>
<path d="M6150 6350 c0 -47 2 -50 25 -50 23 0 25 3 25 50 0 47 -2 50 -25 50
-23 0 -25 -3 -25 -50z"/>
<path d="M6300 6225 l0 -175 -50 0 -50 0 0 -175 0 -175 50 0 50 0 0 -50 0 -50
50 0 50 0 0 400 0 400 -50 0 -50 0 0 -175z"/>
<path d="M1250 6225 c0 -20 5 -25 25 -25 20 0 25 5 25 25 0 20 -5 25 -25 25
-20 0 -25 -5 -25 -25z"/>
<path d="M5950 5825 c0 -20 -5 -25 -25 -25 -23 0 -25 -3 -25 -50 l0 -50 100 0
100 0 0 50 c0 47 -2 50 -25 50 -20 0 -25 5 -25 25 0 23 -3 25 -50 25 -47 0
-50 -2 -50 -25z"/>
<path d="M350 1275 c0 -20 -5 -25 -25 -25 -23 0 -25 -3 -25 -50 0 -47 2 -50
25 -50 23 0 25 -3 25 -50 0 -47 -2 -50 -25 -50 -23 0 -25 -3 -25 -50 l0 -50
-50 0 -50 0 0 -50 0 -50 200 0 200 0 0 50 0 50 -50 0 -50 0 0 50 c0 47 -2 50
-25 50 -23 0 -25 3 -25 50 0 47 2 50 25 50 23 0 25 3 25 50 0 47 -2 50 -25 50
-20 0 -25 5 -25 25 0 23 -3 25 -50 25 -47 0 -50 -2 -50 -25z"/>
</g>
</svg>
