<?xml version="1.0" standalone="no"?>
<!DOCTYPE svg PUBLIC "-//W3C//DTD SVG 20010904//EN"
 "http://www.w3.org/TR/2001/REC-SVG-20010904/DTD/svg10.dtd">
<svg version="1.0" xmlns="http://www.w3.org/2000/svg"
 width="260.000000pt" height="220.000000pt" viewBox="0 0 260.000000 220.000000"
 preserveAspectRatio="xMidYMid meet">

<g transform="translate(0.000000,220.000000) scale(0.100000,-0.100000)"
fill="#000000" stroke="none">
<path d="M32 2157 l-22 -23 0 -1040 c0 -1033 0 -1040 20 -1062 l21 -22 1247 0
c686 0 1252 4 1259 8 32 20 33 69 33 1086 0 1020 0 1023 -21 1050 l-20 26
-1248 0 -1248 0 -21 -23z m2528 -2 c10 -12 10 -15 -4 -15 -9 0 -16 7 -16 15 0
8 2 15 4 15 2 0 9 -7 16 -15z m-2212 -135 c76 -57 87 -170 22 -239 -96 -100
-261 -32 -263 108 -1 95 73 166 165 157 26 -3 60 -14 76 -26z m341 3 c92 -69
95 -191 5 -259 -96 -73 -244 -1 -244 120 0 67 36 125 95 152 39 18 110 12 144
-13z m328 10 c79 -37 111 -151 64 -227 -79 -127 -281 -72 -283 77 -1 60 27
113 76 142 48 29 94 32 143 8z m354 -6 c58 -39 81 -84 77 -145 -8 -90 -67
-147 -152 -147 -136 2 -205 163 -113 264 49 53 132 66 188 28z m358 -6 c42
-30 64 -76 65 -132 0 -62 -29 -107 -86 -137 -64 -33 -116 -24 -172 28 -40 38
-41 40 -41 107 0 77 16 107 75 143 45 27 114 23 159 -9z m331 8 c76 -43 104
-151 58 -219 -38 -55 -73 -75 -132 -75 -66 1 -111 31 -138 93 -61 138 82 274
212 201z m364 -12 c42 -32 71 -102 62 -149 -23 -123 -160 -176 -250 -97 -44
38 -60 78 -54 138 12 121 146 181 242 108z m-2087 -317 c60 -36 90 -108 72
-174 -13 -49 -66 -104 -108 -112 -35 -7 -42 -24 -9 -24 33 0 86 -40 105 -80
56 -114 -34 -244 -157 -227 -80 10 -132 73 -132 159 0 75 42 126 127 153 17 5
13 9 -20 20 -128 44 -147 215 -32 285 42 26 112 26 154 0z m340 3 c46 -22 83
-81 83 -134 0 -75 -49 -143 -112 -156 -33 -7 -37 -23 -6 -23 28 0 84 -44 103
-80 33 -63 8 -159 -52 -204 -15 -11 -48 -21 -77 -24 -41 -3 -57 1 -85 20 -51
34 -73 71 -78 125 -7 80 38 137 132 169 17 6 15 8 -14 16 -52 14 -78 36 -102
85 -65 135 72 271 208 206z m374 -19 c60 -56 73 -119 39 -190 -23 -46 -57 -73
-105 -84 -26 -6 -27 -8 -10 -14 62 -22 91 -44 113 -86 72 -140 -76 -285 -212
-207 -94 53 -102 188 -17 260 18 15 41 27 51 27 10 0 22 5 25 10 3 6 -2 10
-12 10 -29 0 -81 37 -104 72 -26 43 -23 135 7 176 51 69 166 82 225 26z m665
20 c49 -23 77 -68 81 -128 7 -82 -41 -148 -118 -166 -29 -6 -31 -8 -14 -14 48
-17 90 -43 109 -69 29 -40 29 -134 0 -174 -72 -97 -186 -97 -258 0 -32 44 -29
133 6 179 24 32 39 41 103 63 16 6 11 10 -28 21 -36 11 -53 24 -73 54 -93 140
43 305 192 234z m343 1 c68 -34 101 -110 82 -183 -13 -47 -68 -102 -113 -112
-28 -6 -30 -8 -13 -14 93 -32 141 -96 131 -175 -7 -50 -43 -104 -86 -126 -67
-34 -166 -3 -201 65 -23 42 -25 110 -4 149 18 37 71 81 95 81 10 0 22 5 25 10
3 6 -2 10 -12 10 -10 0 -33 9 -51 20 -94 58 -97 202 -6 264 44 30 108 35 153
11z m357 -4 c116 -71 90 -262 -38 -288 -34 -7 -37 -23 -5 -23 39 0 105 -64
115 -113 9 -44 -5 -114 -29 -143 -22 -27 -87 -54 -127 -54 -82 0 -160 93 -147
175 11 72 49 112 130 141 17 6 15 8 -15 16 -79 22 -129 107 -111 188 22 100
142 153 227 101z m-1036 -330 c100 -70 92 -225 -13 -275 -92 -43 -190 5 -217
105 -15 53 1 107 43 147 55 53 130 62 187 23z m-1053 -318 c117 -55 114 -226
-5 -284 -115 -57 -245 56 -212 182 26 98 127 145 217 102z m353 -4 c47 -27 80
-83 80 -138 0 -141 -162 -209 -261 -110 -127 127 25 336 181 248z m1048 -6
c42 -31 64 -68 69 -115 11 -95 -56 -171 -150 -171 -94 0 -151 58 -152 154 0
65 18 98 76 137 27 19 43 23 82 19 27 -2 60 -13 75 -24z m686 4 c68 -39 97
-137 61 -207 -18 -35 -69 -75 -108 -84 -41 -10 -107 12 -139 46 -122 131 31
334 186 245z m-2074 -330 c149 -100 42 -338 -126 -281 -127 43 -146 215 -31
284 45 28 115 26 157 -3z m690 0 c129 -86 73 -287 -79 -287 -154 0 -211 209
-79 290 46 28 115 26 158 -3z m1040 1 c49 -34 72 -83 67 -145 -7 -96 -76 -151
-174 -140 -82 9 -143 97 -127 183 7 39 55 101 88 114 42 17 112 11 146 -12z
m-1380 -327 c97 -70 91 -213 -10 -270 -128 -72 -274 64 -216 201 16 37 65 82
101 91 33 9 98 -2 125 -22z m652 19 c23 -7 50 -26 73 -52 31 -37 35 -48 35
-96 0 -68 -27 -115 -81 -142 -93 -48 -192 -2 -219 101 -25 92 47 190 145 198
6 1 27 -4 47 -9z m382 -18 c51 -30 71 -67 71 -132 0 -66 -18 -99 -75 -138
-107 -72 -251 38 -226 174 8 40 71 110 108 117 35 7 89 -2 122 -21z m347 2
c35 -17 66 -69 74 -119 5 -31 1 -51 -17 -84 -29 -57 -64 -82 -121 -88 -90 -10
-167 62 -167 157 0 121 121 192 231 134z m-2016 -355 c11 -17 -1 -21 -15 -4
-8 9 -8 15 -2 15 6 0 14 -5 17 -11z"/>
</g>
</svg>
