<?xml version="1.0" standalone="no"?>
<!DOCTYPE svg PUBLIC "-//W3C//DTD SVG 20010904//EN"
 "http://www.w3.org/TR/2001/REC-SVG-20010904/DTD/svg10.dtd">
<svg version="1.0" xmlns="http://www.w3.org/2000/svg"
 width="512.000000pt" height="512.000000pt" viewBox="0 0 512.000000 512.000000"
 preserveAspectRatio="xMidYMid meet">

<g transform="translate(0.000000,512.000000) scale(0.100000,-0.100000)"
fill="#000000" stroke="none">
<path d="M2467 5110 c-52 -13 -57 -16 -460 -248 -275 -159 -354 -209 -345
-218 22 -20 885 -514 898 -514 15 0 909 512 910 521 0 8 -701 412 -764 440
-55 24 -178 34 -239 19z"/>
<path d="M895 4220 c-248 -143 -451 -264 -453 -269 -3 -9 884 -524 902 -524
14 0 900 511 904 521 1 4 -188 118 -420 252 -233 134 -437 252 -453 262 l-31
17 -449 -259z"/>
<path d="M3323 4217 c-249 -144 -453 -264 -453 -267 0 -3 195 -118 433 -255
237 -137 441 -255 453 -262 18 -12 62 12 469 246 247 143 451 264 453 269 2 7
-757 454 -883 520 -17 8 -89 -30 -472 -251z"/>
<path d="M2106 3516 c-241 -140 -442 -258 -447 -263 -5 -5 175 -115 446 -272
l456 -263 454 263 c250 144 452 265 450 269 -9 14 -892 520 -906 520 -8 -1
-211 -115 -453 -254z"/>
<path d="M282 3158 l3 -530 448 -259 c247 -143 450 -259 453 -259 2 0 4 237 4
528 l0 527 -248 142 c-136 78 -340 196 -455 262 l-207 120 2 -531z"/>
<path d="M4383 3425 l-452 -260 -1 -527 c0 -291 2 -528 5 -528 7 0 888 509
898 519 4 4 6 243 5 532 l-3 524 -452 -260z"/>
<path d="M1490 2456 l0 -524 213 -123 c116 -67 323 -187 460 -265 l247 -143
-2 530 -3 531 -448 259 c-247 142 -453 259 -458 259 -5 0 -9 -218 -9 -524z"/>
<path d="M3160 2720 l-445 -259 -3 -531 -2 -531 42 25 c24 14 230 133 458 265
l415 240 3 525 c2 418 0 526 -10 525 -7 -1 -213 -117 -458 -259z"/>
<path d="M282 1818 l3 -463 31 -65 c51 -107 89 -136 476 -359 194 -113 363
-211 376 -219 l22 -14 -2 532 -3 532 -449 259 c-247 142 -450 259 -453 259 -2
0 -2 -208 -1 -462z"/>
<path d="M4380 2020 l-445 -259 -3 -531 -2 -532 32 20 c18 11 179 104 358 207
179 103 343 201 365 216 52 37 90 86 123 157 l27 57 3 463 c1 254 -1 462 -5
461 -4 -1 -208 -117 -453 -259z"/>
<path d="M1490 1056 l0 -526 38 -23 c40 -25 822 -476 860 -496 l22 -12 0 528
0 528 -450 260 c-248 143 -455 262 -460 263 -6 2 -10 -191 -10 -522z"/>
<path d="M3163 1317 l-453 -262 0 -528 0 -528 33 17 c47 25 805 462 850 490
l37 24 0 525 c0 289 -3 525 -7 524 -5 0 -212 -118 -460 -262z"/>
</g>
</svg>
